<svg id="Layer_1" data-name="Layer 1" xmlns="http://www.w3.org/2000/svg" viewBox="0 0 240 240"><title>comment</title><path d="M378.72,384.54c-20.6-.87-40.7-2.34-60.79-2.41s-40.06,1.27-60.44,2l0.57-11.92L273,369c3.66-.8,7.32-1.57,11-2.46a14.47,14.47,0,0,0,3.69-1.47c3.32-1.9,4.31-3.86,3-7.48q-5.43-15.14-11.31-30.11c-3.17-8-6.7-15.95-10-24a2.78,2.78,0,0,0-3-2.11c-8.91.08-17.83,0-26.74,0q-19.62-.09-39.24-0.21c-1.31,0-2.36,0-2.93,1.59-6.09,16.8-12.43,33.51-18.27,50.39-2.33,6.74.17,11.23,7.09,13.22,6.36,1.83,13,2.81,19.48,4.12,1.38,0.28,2.8.34,4.4,0.52v12.81c-3.78,0-7.34.19-10.87,0-12.46-.8-24.92-1.64-37.36-2.67-5.75-.48-11.24,1-16.84,1.56-8.66.92-17.35,1.5-26.06,2.23,0-4.36-.08-8.08.09-11.79,0-.52,1.17-1.28,1.9-1.43q8.66-1.87,17.36-3.53c9.55-1.82,15.33-7.44,18.82-16.55q39.2-102.32,78.74-204.51c0.81-2.1,1.8-2.71,3.95-2.63a132,132,0,0,0,13.74,0c2.87-.19,4.11,1,5.12,3.41,4.24,10.13,8.66,20.19,12.9,30.32q26.57,63.43,53,126.89c6.08,14.59,11.94,29.28,18,43.89,1.3,3.15,3,6.13,4.35,9.26a13.64,13.64,0,0,0,10,8.23c6,1.42,12,2.91,18,4.23,2.1,0.46,3.15,1.4,3.21,3.62C378.18,377.57,378.48,380.86,378.72,384.54ZM231.86,211.76l-26.65,70.57h55.41A624,624,0,0,0,231.86,211.76Z" transform="translate(-118.91 -144.41)"/></svg>
