<svg id="Layer_1" data-name="Layer 1" xmlns="http://www.w3.org/2000/svg" viewBox="0 0 240 240"><title>gear</title><path d="M152.49,316.41a36.85,36.85,0,0,1,2.58-4.77q7.07-9.38,14.34-18.6a2.87,2.87,0,0,0,.37-3.52c-1.78-3.84-3.39-7.77-4.88-11.73a3,3,0,0,0-2.77-2.32c-8.33-1.13-16.64-2.37-25-3.61-4.44-.66-6.09-2.55-6.1-7q0-16.12,0-32.25c0-4.54,1.78-6.49,6.23-7.16,8.4-1.26,16.78-2.61,25.18-3.8a2.89,2.89,0,0,0,2.59-2.18c1.44-3.63,2.93-7.25,4.58-10.78a2.76,2.76,0,0,0-.32-3.35c-4.9-6.21-9.69-12.51-14.59-18.72-3.3-4.19-3.62-6.1.06-10,7.09-7.6,14.5-14.91,21.81-22.31a19.53,19.53,0,0,1,2.76-2.14c3.77-2.64,5.52-2.65,9.2.17,6,4.56,11.93,9.09,17.74,13.82,2.11,1.72,3.83,2.29,6.36.81a31.42,31.42,0,0,1,7.8-3.26c2.72-.71,3.27-2.34,3.59-4.78,1-7.75,2.18-15.5,3.53-23.2,1-5.73,2.42-6.68,8.28-6.68h31.25c4.64,0,6.31,1.38,7,5.93,1.33,8.47,2.65,16.94,3.87,25.43a3.05,3.05,0,0,0,2.27,2.82c3.43,1.26,6.82,2.67,10.14,4.18a3.21,3.21,0,0,0,3.81-.43c6.66-5.14,13.4-10.17,20.13-15.22,2.94-2.21,5.47-2.38,8.09.22,8.34,8.25,16.58,16.61,24.64,25.13,2.95,3.12,2.77,5.49.15,9q-7.15,9.47-14.48,18.8a3,3,0,0,0-.4,3.74c1.78,3.66,3.29,7.45,4.73,11.26a3.29,3.29,0,0,0,2.9,2.53c8.16,1.16,16.3,2.47,24.45,3.66,4.87,0.71,6.57,2.52,6.57,7.36q0,15.87,0,31.75c0,4.83-1.68,6.68-6.52,7.41-8.31,1.26-16.61,2.61-24.93,3.79a2.88,2.88,0,0,0-2.58,2.17c-1.44,3.63-2.95,7.24-4.61,10.77a2.56,2.56,0,0,0,.31,3.12c4.84,6.15,9.59,12.38,14.45,18.52,3.6,4.55,4,6.43,0,10.64-7.53,8-15.24,15.82-23.26,23.31-4.57,4.27-6.62,3.9-11.57,0-6-4.67-12-9.32-17.88-14a2.89,2.89,0,0,0-3.56-.42,63.52,63.52,0,0,1-9.19,3.86c-2.58.78-3.36,2.18-3.68,4.71q-1.48,11.63-3.5,23.19c-1,5.89-2.37,6.78-8.42,6.78q-15.5,0-31,0c-4.74,0-6.39-1.37-7.14-6.11-1.33-8.38-2.65-16.77-3.83-25.17a3.2,3.2,0,0,0-2.43-3c-3.43-1.27-6.82-2.67-10.14-4.19A3,3,0,0,0,208,331c-6.46,5-13,9.91-19.5,14.82-3.86,2.91-6,3-9.43-.42q-12.09-11.91-23.87-24.13C154,320,153.43,318.15,152.49,316.41ZM251.16,209a40,40,0,1,0,39.91,40.3C291.29,227,273.67,209.22,251.16,209Z" transform="translate(-131.07 -129.02)"/></svg>
