<svg id="Layer_1" data-name="Layer 1" xmlns="http://www.w3.org/2000/svg" viewBox="0 0 240 240"><title>option</title><path d="M243.38,126.51a120,120,0,1,1-119.86,119.8C123.65,180,177.27,126.4,243.38,126.51Zm0.11,150c4.75,0,9.5,0,14.24,0,3.72,0,5.17-1.52,5.84-5.11a18.45,18.45,0,0,1,2-5.56c2.6-4.61,6.59-7.76,11-10.59,5.53-3.51,11.17-7.06,16-11.44,12.2-11.14,14.47-32.44,5.47-47.76-13.86-23.6-42.32-35.39-71.76-26.79C209.89,174,198,184.59,189.17,198.9c-2.21,3.58-2,5.32,1.35,7.88q9.6,7.4,19.3,14.65c3.08,2.31,5.53,2,8-1,2.71-3.16,5.4-6.33,8.13-9.48,9.19-10.58,23.52-9.35,31.13-4.35,8,5.23,8.59,15,1.12,20.95a51.82,51.82,0,0,1-6.32,4c-3.59,2.1-7.44,3.81-10.78,6.23-11.12,8-19,17.93-17.69,32.78,0.36,4.12,1.84,5.87,6,5.9C234.15,276.54,238.82,276.51,243.48,276.51Zm20,30c0-4.74,0-9.49,0-14.23,0-4-1.8-5.78-5.82-5.79q-14.23-.05-28.46,0c-3.89,0-5.72,1.81-5.73,5.63q-0.05,14.35,0,28.7c0,3.86,1.82,5.67,5.68,5.69q14.23,0.07,28.46,0c4.11,0,5.84-1.83,5.86-6C263.53,315.81,263.51,311.15,263.51,306.49Z" transform="translate(-123.51 -126.51)"/></svg>
