<svg id="Layer_1" data-name="Layer 1" xmlns="http://www.w3.org/2000/svg" viewBox="0 0 240 240"><defs><style>.cls-1{fill:#fff;}</style></defs><title>undo</title><path class="cls-1" d="M197.7,191.21c1.91-1.67,3.11-2.83,4.42-3.84,24.68-18.92,51.82-23.51,80.61-11.71s45.36,34.18,49.1,65c3.27,26.91-5.88,50.11-26,68.22-19.32,17.43-42.38,23.86-68.13,19.22-19.38-3.49-35.14-13.28-47.52-28.58-3.08-3.81-6-3.91-9.43-.44q-9.73,9.72-19.38,19.5c-2.87,2.9-3,5.53-.39,8.57,22.61,26.22,51.34,40.26,85.79,42.16a112.77,112.77,0,0,0,60.68-13.42C347.61,334.2,369,300.16,372.25,255c1.82-25.35-5-49-19-70.17-23.07-35.14-56.1-53.41-98-55.14-25.78-1.06-49.29,6.6-70.57,21-5.21,3.54-10,7.67-15.41,11.84a19.41,19.41,0,0,0-1.56-2c-6-6-12.06-12-18.08-18-2.68-2.67-5.72-3.92-9.51-2.8-5.18,1.53-7.66,4.8-7.67,10.3q0,33.75,0,67.5c0,7.91,3.89,11.83,11.77,11.83H211c0.58,0,1.17,0,1.75,0a9.39,9.39,0,0,0,8.86-6.18c1.64-3.83,1.18-7.33-1.74-10.36q-3.64-3.78-7.4-7.45C207.68,200.77,202.8,196.12,197.7,191.21Z" transform="translate(-132.51 -129.59)"/><path d="M197.7,191.21c5.1,4.91,10,9.56,14.8,14.25q3.76,3.66,7.4,7.45c2.92,3,3.38,6.53,1.74,10.36a9.39,9.39,0,0,1-8.86,6.18c-0.58,0-1.17,0-1.75,0H144.28c-7.87,0-11.77-3.92-11.77-11.83q0-33.75,0-67.5c0-5.5,2.49-8.77,7.67-10.3,3.79-1.12,6.83.13,9.51,2.8,6,6,12.06,12,18.08,18a19.41,19.41,0,0,1,1.56,2c5.39-4.17,10.2-8.3,15.41-11.84,21.28-14.44,44.78-22.11,70.57-21,41.88,1.73,74.92,20,98,55.14,13.91,21.19,20.78,44.82,19,70.17-3.24,45.17-24.64,79.21-64.77,100.86a112.77,112.77,0,0,1-60.68,13.42c-34.45-1.9-63.18-15.94-85.79-42.16-2.62-3-2.48-5.66.39-8.57q9.67-9.78,19.38-19.5c3.47-3.47,6.35-3.37,9.43.44,12.38,15.3,28.14,25.09,47.52,28.58,25.75,4.64,48.81-1.79,68.13-19.22,20.08-18.11,29.22-41.31,26-68.22-3.74-30.79-20.3-53.17-49.1-65s-55.92-7.21-80.61,11.71C200.81,188.38,199.61,189.54,197.7,191.21Z" transform="translate(-132.51 -129.59)"/></svg>
