<svg xmlns="http://www.w3.org/2000/svg" viewBox="0 0 207 98"><defs><style>.cls-1{fill:#fff;}</style></defs><path class="cls-1" d="M184.11,227.26L204.89,283,225,227.56q1.77-5,1.78-6.39,0-3.9-3.73-3.91a24,24,0,0,0-4.17.53,24,24,0,0,1-4.17.53q-5.86,0-5.86-5.77,0-6.12,8.52-6.12h1.42a10.34,10.34,0,0,0,1.42.13l7.46,0.76a18.61,18.61,0,0,0,5.15.71,110.3,110.3,0,0,0,11.72-1,68.1,68.1,0,0,1,7.1-.6q7.63,0,7.64,5.95T253,218.33a7,7,0,0,1-2.84-.43,19,19,0,0,0-3.73-.64q-3.2,0-6.57,8.54l-25,64.06q-3.2,8.18-10.83,8.18-7.28,0-10.48-8.2l-25.57-66q-2.49-6.6-5.86-6.6a19.66,19.66,0,0,0-3.73.53,19.65,19.65,0,0,1-3.73.53q-5.86,0-5.86-5.5,0-6.39,8.17-6.39a9.64,9.64,0,0,1,2.13.18l7.46,0.95A59.13,59.13,0,0,0,174,208a83.11,83.11,0,0,0,8.88-.69l5.86-.69a10.66,10.66,0,0,1,2.49-.23q7.81,0,7.81,6.13,0,5.77-6.75,5.77a14.46,14.46,0,0,1-3-.21,25,25,0,0,0-4.26-.85q-2.84,0-2.84,2.5a13.28,13.28,0,0,0,.71,3.57Z" transform="translate(-148.78 -202.35)"/><path class="cls-1" d="M293.64,203.41q11.86,0,19.82,6.21v-0.71q0-6.57,5.68-6.57,5.86,0,5.86,5.68,0,1.06-.3,5.33a43.24,43.24,0,0,0-.59,7.1,61.9,61.9,0,0,0,.44,6.21q0.44,4.09.44,6.21,0,6.75-5.77,6.75-5.6,0-5.77-5.68v-5.86q-0.18-5.33-6.13-9.14a25.25,25.25,0,0,0-13.94-3.82,22,22,0,0,0-13.67,4.17q-5.51,4.17-5.5,10.39,0,11.36,15.63,13.49l10.3,1.42q30.18,4.09,30.19,25a25.36,25.36,0,0,1-9.74,20.69q-9.74,7.9-25.49,7.9-14.69,0-25.49-8.34v3.37q0,6.39-6,6.39-6.57,0-6.57-7.28,0,1.24,1.06-9.23a35.19,35.19,0,0,0,.36-5,42.83,42.83,0,0,0-.71-8,33.32,33.32,0,0,1-.71-5.86q0-6.21,5.68-6.21,3.73,0,4.71,1.78t1.15,9.41q0.17,7.64,8,12.43t19.89,4.79q8.7,0,14.38-4.44a13.64,13.64,0,0,0,5.68-11.19q0-12.07-19.18-14-18.29-2-27.88-7.19t-9.59-18.38a24.87,24.87,0,0,1,9.38-20.15Q278.6,203.41,293.64,203.41Z" transform="translate(-148.78 -202.35)"/><path class="cls-1" d="M342,298.23a10.48,10.48,0,0,1-7.81-3.28,11.37,11.37,0,0,1,0-15.8,10.93,10.93,0,0,1,15.63,0,11.36,11.36,0,0,1,0,15.8A10.49,10.49,0,0,1,342,298.23Z" transform="translate(-148.78 -202.35)"/></svg>
